<?xml version="1.0" encoding="UTF-8"?> <svg xmlns="http://www.w3.org/2000/svg" xmlns:xlink="http://www.w3.org/1999/xlink" id="Layer_1" data-name="Layer 1" viewBox="0 0 1920 738"><defs><style>.cls-1,.cls-3,.cls-4,.cls-6,.cls-7,.cls-8,.cls-9{fill:none;}.cls-2{clip-path:url(#clip-path);}.cls-3,.cls-4,.cls-6,.cls-7,.cls-8,.cls-9{stroke:#4b26e9;stroke-miterlimit:10;}.cls-3,.cls-4{stroke-width:67.12px;}.cls-3,.cls-9{opacity:0.6;}.cls-4,.cls-6{opacity:0.8;}.cls-5{clip-path:url(#clip-path-2);}.cls-6,.cls-7,.cls-8,.cls-9{stroke-width:76.43px;}.cls-7{opacity:0.4;}.cls-8{opacity:0.2;}</style><clipPath id="clip-path"><rect class="cls-1" x="-2940.26" y="-311" width="2317.86" height="1352.19"></rect></clipPath><clipPath id="clip-path-2"><rect class="cls-1" x="-363.71" y="-464.89" width="2645.61" height="1506.22"></rect></clipPath></defs><g class="cls-2"><path class="cls-3" d="M-131.88,142.07c31.32-1,62.57,2.55,94.35-29.24s28.24-63,29.22-94.35"></path><path class="cls-4" d="M93.45-83.3C69.26-82.53,45-79,20.48-54.5s-28,48.79-28.79,73"></path></g><g class="cls-5"><path class="cls-6" d="M208.44,286.09A119.93,119.93,0,0,1,63.86,173"></path><path class="cls-7" d="M-23.31,419a120.57,120.57,0,0,1,19.63,7.08,119.79,119.79,0,0,1,58.55,159"></path><path class="cls-8" d="M106.82,784.11A121.18,121.18,0,0,1,89.14,795.2,119.79,119.79,0,0,1-72.12,743.28"></path><path class="cls-7" d="M409.94,587a119.93,119.93,0,0,1-183.54.46"></path><path class="cls-7" d="M956.55,760.35a119.93,119.93,0,0,1-30.63-181"></path><path class="cls-6" d="M1418.35,537a119.89,119.89,0,0,1,58,174.13"></path><path class="cls-8" d="M1586.18,784.11a119.86,119.86,0,0,1-178.93-40.83"></path><path class="cls-9" d="M1924.34,377a119.88,119.88,0,0,1-140.23,118.4"></path><path class="cls-7" d="M1979.31,723.4a121.63,121.63,0,0,1-14.73,14.78,119.79,119.79,0,0,1-168.8-14.32"></path></g></svg> 